<svg width="387" height="387" viewBox="0 0 387 387" fill="none" xmlns="http://www.w3.org/2000/svg">
<rect width="387" height="387" fill="black"/>
<path d="M251 51.8024C251.895 52.4792 252.789 53.156 253.711 53.8532C265.501 63.0927 275.078 74.0978 283 86.8024C283.378 87.4039 283.755 88.0055 284.144 88.6252C296.556 108.708 303.488 131.541 305.12 155.05C305.203 156.248 305.287 157.446 305.373 158.68C306.382 174.839 306.293 191.019 306.269 207.203C306.263 211.802 306.268 216.402 306.271 221.001C306.275 228.696 306.27 236.392 306.261 244.088C306.25 252.955 306.253 261.823 306.264 270.69C306.273 278.363 306.275 286.036 306.27 293.709C306.266 298.267 306.266 302.824 306.273 307.382C306.278 311.653 306.274 315.924 306.263 320.195C306.26 321.753 306.261 323.311 306.265 324.869C306.328 349.243 306.328 349.243 297.75 359.49C290.815 365.322 284.708 366.406 275.781 366.334C274.724 366.337 273.667 366.341 272.577 366.345C270.352 366.348 268.126 366.341 265.901 366.324C262.51 366.302 259.121 366.324 255.73 366.349C253.56 366.347 251.389 366.342 249.219 366.334C248.213 366.342 247.208 366.35 246.172 366.358C239.828 366.274 235.375 365.195 230 361.802C229.113 361.246 228.226 360.689 227.312 360.115C219.654 352.457 218.633 343.253 217.617 332.9C216.048 317.469 210.417 303.164 198.902 292.302C195.536 289.648 191.834 287.692 188 285.802C186 284.802 186 284.802 183 282.802C169.266 277.24 154.759 277.42 141.008 283.021C126.424 290.458 116.497 302.583 111.27 317.966C109.263 324.767 108.724 331.887 108.2 338.934C107.38 348.423 104.413 355.245 97.1367 361.513C90.274 365.654 84.0532 366.26 76.2188 366.236C75.2058 366.241 74.1929 366.247 73.1493 366.252C71.018 366.258 68.8867 366.257 66.7554 366.248C63.5094 366.24 60.2653 366.269 57.0195 366.3C54.9401 366.302 52.8607 366.302 50.7812 366.299C49.8196 366.31 48.8579 366.321 47.8671 366.333C39.1928 366.244 33.4758 363.538 27 357.802C20.9272 349.279 20.1359 341.041 20.2305 330.841C20.2217 329.438 20.2102 328.035 20.1961 326.631C20.166 322.974 20.1701 319.318 20.1827 315.66C20.1922 311.21 20.1636 306.761 20.1377 302.311C20.1178 298.851 20.1043 295.392 20.1119 291.932C20.1113 290.69 20.1107 289.448 20.1101 288.168C20.1127 287.081 20.1152 285.993 20.1178 284.873C19.9989 281.773 19.5169 278.857 19 275.802C19.2958 274.129 19.6313 272.462 20 270.802C20.0802 268.488 20.1077 266.172 20.0977 263.857C20.0955 262.88 20.0955 262.88 20.0934 261.882C20.0878 259.814 20.0753 257.746 20.0625 255.677C20.0575 254.28 20.0529 252.883 20.0488 251.486C20.0407 248.93 20.0293 246.374 20.0159 243.818C20.0053 241.813 20 239.807 20 237.802C19.995 235.96 19.9897 234.117 19.9841 232.275C19.9678 226.531 19.9564 220.787 19.9482 215.043C19.943 211.582 19.9361 208.122 19.9246 204.661C19.879 190.607 19.9028 176.561 20.4023 162.513C20.453 160.98 20.453 160.98 20.5046 159.416C21.834 126.833 33.9556 95.6624 55 70.8024C55.7 69.9671 56.3999 69.1318 57.1211 68.2712C62.538 62.0143 68.4237 56.8117 75 51.8024C75.5272 51.3949 76.0545 50.9874 76.5977 50.5676C127.486 11.4843 200.587 13.0848 251 51.8024ZM122.848 132.513C112.232 145.665 109.661 159.373 111 175.802C113.21 190.053 121.337 203.204 132.938 211.74C145.111 219.617 158.731 222.504 173.078 220.338C187.551 217.136 199.606 209.794 207.875 197.365C215.611 184.356 218.667 169.612 215.164 154.674C210.951 140.89 202.4 129.462 189.977 121.982C167.596 110.313 140.406 113.838 122.848 132.513Z" fill="#D4A84B"/>
<path d="M354.753 317.255C360.189 320.539 363.754 324.275 365.749 330.329C367.656 338.799 366.048 345.944 361.628 353.255C356.588 358.162 350.662 361.27 343.585 361.704C337.096 361.324 330.778 359.359 326.253 354.567C322.161 348.722 319.883 342.363 320.44 335.138C321.951 327.124 325.89 322.491 332.351 317.767C338.492 313.895 348.308 314.199 354.753 317.255Z" fill="#5A9E6A"/>
</svg>
