<svg width="348" height="345" viewBox="0 0 348 345" fill="none" xmlns="http://www.w3.org/2000/svg">
<path d="M232 29.8024C232.895 30.4792 233.789 31.156 234.711 31.8532C246.501 41.0927 256.078 52.0978 264 64.8024C264.378 65.4039 264.755 66.0055 265.144 66.6252C277.556 86.7078 284.488 109.541 286.12 133.05C286.203 134.248 286.287 135.446 286.373 136.68C287.382 152.839 287.293 169.019 287.269 185.203C287.263 189.802 287.268 194.402 287.271 199.001C287.275 206.696 287.27 214.392 287.261 222.088C287.25 230.955 287.253 239.823 287.264 248.69C287.273 256.363 287.275 264.036 287.27 271.709C287.266 276.267 287.266 280.824 287.273 285.382C287.278 289.653 287.274 293.924 287.263 298.195C287.26 299.753 287.261 301.311 287.265 302.869C287.328 327.244 287.328 327.244 278.75 337.49C271.815 343.322 265.708 344.406 256.781 344.334C255.724 344.338 254.667 344.341 253.577 344.345C251.352 344.348 249.126 344.341 246.901 344.324C243.51 344.302 240.121 344.324 236.73 344.349C234.56 344.347 232.389 344.342 230.219 344.334C229.213 344.342 228.208 344.35 227.172 344.358C220.828 344.274 216.375 343.195 211 339.802C210.113 339.246 209.226 338.689 208.312 338.115C200.654 330.457 199.633 321.253 198.617 310.9C197.048 295.469 191.417 281.164 179.902 270.302C176.536 267.648 172.834 265.692 169 263.802C167 262.802 167 262.802 164 260.802C150.266 255.24 135.759 255.42 122.008 261.021C107.424 268.458 97.4973 280.583 92.2695 295.966C90.2632 302.767 89.7238 309.887 89.2002 316.934C88.3798 326.423 85.4127 333.245 78.1367 339.513C71.2741 343.654 65.0532 344.26 57.2188 344.236C56.2058 344.241 55.1929 344.247 54.1493 344.252C52.018 344.258 49.8867 344.257 47.7554 344.248C44.5094 344.24 41.2653 344.269 38.0195 344.3C35.9401 344.302 33.8607 344.302 31.7812 344.299C30.8196 344.31 29.8579 344.321 28.8671 344.333C20.1928 344.244 14.4758 341.538 8 335.802C1.92721 327.278 1.1359 319.041 1.23047 308.841C1.22173 307.438 1.21023 306.035 1.19612 304.631C1.16601 300.974 1.17009 297.318 1.18274 293.66C1.19223 289.21 1.16359 284.761 1.13768 280.311C1.11781 276.851 1.10434 273.392 1.11186 269.932C1.11128 268.69 1.1107 267.448 1.11011 266.168C1.11266 265.081 1.11521 263.993 1.11784 262.873C0.998866 259.773 0.516889 256.857 0 253.802C0.295808 252.129 0.631339 250.462 1 248.802C1.08024 246.488 1.10766 244.172 1.09766 241.857C1.09553 240.88 1.09553 240.88 1.09337 239.882C1.08781 237.814 1.07527 235.746 1.0625 233.677C1.05748 232.28 1.05292 230.883 1.04883 229.486C1.04068 226.93 1.02932 224.374 1.01587 221.818C1.00532 219.813 1 217.807 1 215.802C0.995044 213.96 0.989696 212.117 0.984131 210.275C0.967827 204.531 0.956415 198.787 0.948181 193.043C0.943042 189.582 0.936115 186.122 0.924561 182.661C0.879045 168.607 0.902825 154.561 1.40234 140.513C1.45297 138.98 1.45297 138.98 1.50462 137.416C2.83401 104.833 14.9556 73.6624 36 48.8024C36.7 47.9671 37.3999 47.1318 38.1211 46.2712C43.538 40.0143 49.4237 34.8117 56 29.8024C56.5272 29.3949 57.0545 28.9874 57.5977 28.5676C108.486 -10.5157 181.587 -8.91516 232 29.8024ZM103.848 110.513C93.2323 123.665 90.6606 137.373 92 153.802C94.2096 168.053 102.337 181.204 113.938 189.74C126.111 197.617 139.731 200.504 154.078 198.338C168.551 195.136 180.606 187.794 188.875 175.365C196.611 162.356 199.667 147.612 196.164 132.674C191.951 118.89 183.4 107.462 170.977 99.9821C148.596 88.3126 121.406 91.8376 103.848 110.513Z" fill="#D4A84B"/>
<path d="M335.753 295.255C341.189 298.539 344.754 302.275 346.749 308.329C348.656 316.799 347.048 323.944 342.628 331.255C337.588 336.162 331.662 339.27 324.585 339.704C318.096 339.324 311.778 337.359 307.253 332.567C303.161 326.722 300.883 320.363 301.44 313.138C302.951 305.124 306.89 300.491 313.351 295.767C319.492 291.895 329.308 292.199 335.753 295.255Z" fill="#5A9E6A"/>
</svg>
